<svg xmlns="http://www.w3.org/2000/svg" viewBox="0 0 512 512" width="512" height="512">
  <!-- Белый фон -->
  <rect width="512" height="512" fill="#ffffff"/>
  
  <!-- Тень/линия под автомобилем -->
  <line x1="50" y1="420" x2="462" y2="420" stroke="#000000" stroke-width="2"/>
  
  <!-- Кузов автомобиля (черный силуэт седана) -->
  <path d="M 80 350 
           L 95 285 
           L 140 255 
           L 190 245 
           L 290 245 
           L 340 255 
           L 385 285 
           L 400 350 
           L 400 385 
           L 385 395 
           L 355 395 
           L 330 385 
           L 280 385 
           L 230 385 
           L 180 385 
           L 155 395 
           L 125 395 
           L 100 385 
           L 80 385 
           Z" fill="#000000"/>
  
  <!-- Переднее окно -->
  <path d="M 140 255 L 190 245 L 190 305 L 140 315 Z" fill="#ffffff"/>
  
  <!-- Заднее окно -->
  <path d="M 290 245 L 340 255 L 340 315 L 290 305 Z" fill="#ffffff"/>
  
  <!-- Переднее колесо -->
  <circle cx="180" cy="385" r="38" fill="#000000"/>
  <circle cx="180" cy="385" r="22" fill="#ffffff"/>
  <!-- Пятиконечная звезда на переднем колесе -->
  <g transform="translate(180, 385)">
    <path d="M 0 -18 L 4 -6 L 16 -6 L 7 1 L 11 13 L 0 6 L -11 13 L -7 1 L -16 -6 L -4 -6 Z" fill="#000000"/>
  </g>
  
  <!-- Заднее колесо -->
  <circle cx="330" cy="385" r="38" fill="#000000"/>
  <circle cx="330" cy="385" r="22" fill="#ffffff"/>
  <!-- Пятиконечная звезда на заднем колесе -->
  <g transform="translate(330, 385)">
    <path d="M 0 -18 L 4 -6 L 16 -6 L 7 1 L 11 13 L 0 6 L -11 13 L -7 1 L -16 -6 L -4 -6 Z" fill="#000000"/>
  </g>
</svg>
